<?xml version="1.0" encoding="UTF-8"?><svg id="Calque_1" xmlns="http://www.w3.org/2000/svg" viewBox="0 0 311.74 63.87"><defs><style>.cls-1{fill:#b45272;}.cls-2{fill:#fff;}.cls-3{fill:#951b3f;}</style></defs><path class="cls-2" d="M89.33,43.64c.26,8.05,6.47,11.54,13.7,11.55,5.21.01,8.88-.81,12.36-1.99l1.63,7.69c-3.85,1.64-9.15,2.82-15.56,2.8-14.46-.03-22.95-8.92-22.92-22.55.02-12.35,7.55-23.95,21.82-23.92s19.19,11.93,19.17,21.72c0,2.11-.19,3.75-.37,4.76l-29.83-.06ZM108.92,35.81c.1-4.12-1.72-10.89-9.22-10.91-6.95-.01-9.89,6.29-10.36,10.87l19.58.04Z"/><path class="cls-2" d="M.12,1.74C4.24,1.02,9.82.48,17.33.5c8.23.02,14.18,1.77,18.1,5.07,3.65,3.03,6.02,7.88,6.01,13.64-.01,5.85-1.85,10.61-5.24,13.9-4.58,4.47-11.54,6.65-19.5,6.64-2.11,0-3.93-.1-5.49-.47l-.05,23.33-11.16-.02L.12,1.74ZM11.23,30.4c1.46.46,3.2.56,5.49.56,8.42.02,13.55-4.18,13.56-11.32s-4.74-10.44-12.51-10.45c-3.11,0-5.31.26-6.5.54l-.04,20.68Z"/><path class="cls-2" d="M49.65,32.49c.01-6.04-.07-10.43-.34-14.36l9.7.02.44,8.42h.28c2.21-6.22,7.43-9.41,12.28-9.4,1.1,0,1.74.09,2.65.28l-.02,10.52c-1.01-.19-2.01-.28-3.38-.28-5.31-.01-9.06,3.37-10.08,8.49-.18,1.01-.28,2.19-.28,3.38l-.05,23.15-11.25-.02.06-30.19Z"/><path class="cls-2" d="M212.39,31.72c.01-5.12-.16-9.42-.34-13.27l9.79.02.54,6.68h.27c2.02-3.47,6.88-7.67,14.29-7.65,7.78.02,15.82,5.06,15.79,19.15l-.05,26.44-11.25-.02.05-25.16c.01-6.41-2.36-11.26-8.49-11.27-4.48,0-7.6,3.19-8.8,6.57-.37.91-.55,2.29-.56,3.57l-.05,26.26-11.25-.02.06-31.29Z"/><path class="cls-2" d="M276.76,6.14c0,3.29-2.48,6.03-6.42,6.03s-6.22-2.76-6.21-6.05c0-3.48,2.57-6.13,6.32-6.12s6.22,2.67,6.3,6.14ZM264.66,63.12l.09-44.55,11.25.02-.09,44.55-11.25-.02Z"/><path class="cls-2" d="M286.74,32.97c.01-6.04-.07-10.43-.34-14.36l9.7.02.44,8.42h.27c2.21-6.22,7.43-9.41,12.28-9.4,1.1,0,1.74.09,2.65.28l-.02,10.52c-1.01-.19-2.01-.28-3.38-.28-5.31-.01-9.06,3.37-10.08,8.49-.18,1.01-.28,2.19-.28,3.38l-.05,23.15-11.25-.02.06-30.19Z"/><path class="cls-2" d="M173.12,43.81c.26,8.05,6.47,11.54,13.7,11.55,5.21.01,8.88-.81,12.36-1.99l1.63,7.69c-3.85,1.64-9.15,2.82-15.56,2.8-14.46-.03-22.95-8.92-22.92-22.55.02-12.35,7.55-23.95,21.82-23.92,14.46.03,19.19,11.93,19.17,21.72,0,2.11-.19,3.75-.37,4.76l-29.83-.06ZM192.72,35.98c.1-4.12-1.72-10.89-9.22-10.91-6.95-.01-9.89,6.29-10.36,10.87l19.58.04Z"/><polygon class="cls-1" points="118.86 .88 104.47 12.6 94.92 12.58 103.51 .84 118.86 .88"/><path class="cls-3" d="M114.01,16.07c.14,0,.28,0,.41,0-.14-.03-.27-.05-.41-.07v.07Z"/><path class="cls-1" d="M145.18,16.06c5.72.27,7.88,1.21,9.6,3.55,1.8,2.44,2.37,5.88.72,9.89l-8.28,18.59s-9.93-21.21-11.67-24.77c-2.73-5.59-5.76-7.24-11.22-7.25-.87,0,.32,0-9.91,0,3.8.8,6.15,4.27,9.38,10.62.57,1.11,17.56,37.24,17.56,37.24l15.37-34.42c2.23-5,4.33-7.51,7.28-9.83,3.05-2.4,6.44-3.57,10.79-3.56l-29.63-.06Z"/></svg>